<mxfile host="app.diagrams.net" modified="2024-02-18T14:31:16.235Z" agent="Mozilla/5.0 (Windows NT 10.0; Win64; x64) AppleWebKit/537.36 (KHTML, like Gecko) Chrome/121.0.0.0 Safari/537.36" etag="TmYQv3MHKFAe5k88c3ct" version="23.1.5" type="github">
  <diagram name="第 1 页" id="QUxGIifQUmA1StA2rJvh">
    <mxGraphModel dx="1217" dy="573" grid="1" gridSize="10" guides="1" tooltips="1" connect="1" arrows="1" fold="1" page="1" pageScale="1" pageWidth="827" pageHeight="1169" math="0" shadow="0">
      <root>
        <mxCell id="0" />
        <mxCell id="1" parent="0" />
        <mxCell id="IkZ6kC4b8WAhOYYU804M-1" value="&lt;font face=&quot;Times New Roman&quot;&gt;&amp;nbsp;Main Question&lt;br&gt;&lt;br&gt;How to develop the career move recommendation based on&amp;nbsp;artificial intelligence in job market portal?&amp;nbsp;&lt;br&gt;1.what is the challenge in Job Market Portals?&lt;br&gt;&lt;br&gt;2. How the career move recommendation used in the development of Job Recommendation systems?&lt;br&gt;&lt;br&gt;3. How to offer upskilling and reskilling recommendations to support a career move?&lt;br&gt;&lt;br&gt;4. How to evaluate the development of the problem framing artefacts?&lt;/font&gt;" style="rounded=0;whiteSpace=wrap;html=1;align=left;" parent="1" vertex="1">
          <mxGeometry x="190" y="20" width="490" height="170" as="geometry" />
        </mxCell>
        <mxCell id="IkZ6kC4b8WAhOYYU804M-2" value="&lt;font face=&quot;Times New Roman&quot;&gt;Research&lt;br&gt;Questions&lt;/font&gt;" style="text;html=1;align=center;verticalAlign=middle;resizable=0;points=[];autosize=1;strokeColor=none;fillColor=none;" parent="1" vertex="1">
          <mxGeometry x="95" y="80" width="70" height="40" as="geometry" />
        </mxCell>
        <mxCell id="7s949W7V_czBLz1xUvVB-1" value="&lt;font face=&quot;Times New Roman&quot;&gt;Chapter 1&lt;font data-immersive-translate-loading-id=&quot;517&quot; lang=&quot;zh-CN&quot; translate=&quot;no&quot; class=&quot;notranslate immersive-translate-target-wrapper&quot;&gt;&amp;nbsp;&lt;/font&gt;&lt;/font&gt;" style="rounded=0;whiteSpace=wrap;html=1;" parent="1" vertex="1">
          <mxGeometry x="700" y="80" width="70" height="40" as="geometry" />
        </mxCell>
        <mxCell id="7s949W7V_czBLz1xUvVB-6" value="&lt;font face=&quot;Times New Roman&quot;&gt;Chapter 2&lt;/font&gt;" style="rounded=0;whiteSpace=wrap;html=1;" parent="1" vertex="1">
          <mxGeometry x="700" y="270" width="70" height="40" as="geometry" />
        </mxCell>
        <mxCell id="7s949W7V_czBLz1xUvVB-4" value="&lt;font face=&quot;Times New Roman&quot;&gt;&amp;nbsp; Research Background&lt;br&gt;&lt;br&gt;&lt;br&gt;&lt;br&gt;&lt;br&gt;&lt;br&gt;&lt;br&gt;&lt;/font&gt;&lt;div&gt;&lt;br&gt;&lt;/div&gt;" style="rounded=0;whiteSpace=wrap;html=1;align=left;" parent="1" vertex="1">
          <mxGeometry x="190" y="210" width="490" height="140" as="geometry" />
        </mxCell>
        <mxCell id="7s949W7V_czBLz1xUvVB-9" value="&lt;font face=&quot;Times New Roman&quot;&gt;Chapter 3&lt;/font&gt;" style="rounded=0;whiteSpace=wrap;html=1;" parent="1" vertex="1">
          <mxGeometry x="700" y="420" width="70" height="40" as="geometry" />
        </mxCell>
        <mxCell id="7s949W7V_czBLz1xUvVB-5" value="&lt;font face=&quot;Times New Roman&quot;&gt;Job Recommendation System&lt;/font&gt;" style="rounded=0;whiteSpace=wrap;html=1;" parent="1" vertex="1">
          <mxGeometry x="200" y="250" width="100" height="60" as="geometry" />
        </mxCell>
        <mxCell id="7s949W7V_czBLz1xUvVB-11" value="&lt;font face=&quot;Times New Roman&quot;&gt;Career Move&lt;/font&gt;" style="rounded=0;whiteSpace=wrap;html=1;" parent="1" vertex="1">
          <mxGeometry x="320" y="250" width="100" height="60" as="geometry" />
        </mxCell>
        <mxCell id="7s949W7V_czBLz1xUvVB-12" value="+" style="text;strokeColor=none;align=center;fillColor=none;html=1;verticalAlign=middle;whiteSpace=wrap;rounded=0;" parent="1" vertex="1">
          <mxGeometry x="300" y="265" width="20" height="30" as="geometry" />
        </mxCell>
        <mxCell id="7s949W7V_czBLz1xUvVB-14" value="&lt;font face=&quot;Times New Roman&quot;&gt;Socio-technical Theory&lt;/font&gt;" style="rounded=0;whiteSpace=wrap;html=1;" parent="1" vertex="1">
          <mxGeometry x="440" y="250" width="100" height="60" as="geometry" />
        </mxCell>
        <mxCell id="7s949W7V_czBLz1xUvVB-17" value="+" style="text;strokeColor=none;align=center;fillColor=none;html=1;verticalAlign=middle;whiteSpace=wrap;rounded=0;" parent="1" vertex="1">
          <mxGeometry x="420" y="265" width="20" height="30" as="geometry" />
        </mxCell>
        <mxCell id="7s949W7V_czBLz1xUvVB-18" value="=" style="text;strokeColor=none;align=center;fillColor=none;html=1;verticalAlign=middle;whiteSpace=wrap;rounded=0;" parent="1" vertex="1">
          <mxGeometry x="540" y="265" width="20" height="30" as="geometry" />
        </mxCell>
        <mxCell id="7s949W7V_czBLz1xUvVB-19" value="&lt;font face=&quot;Times New Roman&quot;&gt;Literautre Analysis&lt;/font&gt;" style="rounded=0;whiteSpace=wrap;html=1;" parent="1" vertex="1">
          <mxGeometry x="560" y="250" width="100" height="60" as="geometry" />
        </mxCell>
        <mxCell id="CEq9EQS8CvXJ1ue2R1z7-1" value="&lt;font face=&quot;Times New Roman&quot;&gt;&amp;nbsp;Design Science Research&lt;/font&gt;" style="rounded=0;whiteSpace=wrap;html=1;align=left;" parent="1" vertex="1">
          <mxGeometry x="190" y="370" width="490" height="140" as="geometry" />
        </mxCell>
        <mxCell id="lhme1qqraLi6fW0KgUA8-1" value="&lt;font face=&quot;Times New Roman&quot;&gt;Literature&amp;nbsp;&lt;br&gt;Review&lt;/font&gt;" style="text;html=1;align=center;verticalAlign=middle;resizable=0;points=[];autosize=1;strokeColor=none;fillColor=none;" parent="1" vertex="1">
          <mxGeometry x="95" y="260" width="70" height="40" as="geometry" />
        </mxCell>
        <mxCell id="lhme1qqraLi6fW0KgUA8-2" value="&lt;font face=&quot;Times New Roman&quot;&gt;Research&lt;br&gt;Methodology&lt;br&gt;&amp;nbsp;and Design&lt;/font&gt;" style="text;html=1;align=center;verticalAlign=middle;resizable=0;points=[];autosize=1;strokeColor=none;fillColor=none;" parent="1" vertex="1">
          <mxGeometry x="85" y="410" width="90" height="60" as="geometry" />
        </mxCell>
        <mxCell id="lhme1qqraLi6fW0KgUA8-3" value="&lt;font face=&quot;Times New Roman&quot;&gt;Research Exploration (Research Design based on DRSM)&lt;br&gt;&lt;br&gt;&lt;br&gt;&lt;br&gt;&lt;br&gt;&lt;br&gt;&lt;br&gt;&lt;br&gt;&lt;/font&gt;&lt;div&gt;&lt;br&gt;&lt;/div&gt;" style="rounded=0;whiteSpace=wrap;html=1;align=left;" parent="1" vertex="1">
          <mxGeometry x="190" y="530" width="490" height="170" as="geometry" />
        </mxCell>
        <mxCell id="lhme1qqraLi6fW0KgUA8-4" value="&lt;b&gt;&lt;font face=&quot;Times New Roman&quot;&gt;&amp;nbsp;Identify the challenges&lt;br&gt;&lt;/font&gt;&lt;/b&gt;&lt;div&gt;&lt;font face=&quot;Times New Roman&quot;&gt;&amp;nbsp; &amp;nbsp; &amp;nbsp; &amp;nbsp; &amp;nbsp; &amp;nbsp; Interview and questionnaire to understand the challenges&lt;/font&gt;&lt;/div&gt;" style="rounded=0;whiteSpace=wrap;html=1;align=left;" parent="1" vertex="1">
          <mxGeometry x="200" y="570" width="470" height="50" as="geometry" />
        </mxCell>
        <mxCell id="lhme1qqraLi6fW0KgUA8-6" value="&lt;font face=&quot;Times New Roman&quot;&gt;Chapter 4&lt;/font&gt;" style="rounded=0;whiteSpace=wrap;html=1;" parent="1" vertex="1">
          <mxGeometry x="700" y="590" width="70" height="40" as="geometry" />
        </mxCell>
        <mxCell id="lhme1qqraLi6fW0KgUA8-7" value="&lt;b&gt;&lt;font face=&quot;Times New Roman&quot;&gt;&amp;nbsp;Address the challenges&lt;br&gt;&lt;/font&gt;&lt;/b&gt;&lt;div&gt;&lt;font face=&quot;Times New Roman&quot;&gt;&amp;nbsp; &amp;nbsp; &amp;nbsp; &amp;nbsp; &amp;nbsp; &amp;nbsp; Literature review and qualitative content analysis&lt;/font&gt;&lt;/div&gt;&lt;div&gt;&lt;font face=&quot;S2Pczsk4LlOeV5sZVCbr&quot;&gt;&amp;nbsp; &amp;nbsp; &amp;nbsp; &amp;nbsp; &amp;nbsp; &lt;/font&gt;&lt;font face=&quot;Times New Roman&quot;&gt;Define objectives of the solution&lt;/font&gt;&lt;/div&gt;" style="rounded=0;whiteSpace=wrap;html=1;align=left;" parent="1" vertex="1">
          <mxGeometry x="200" y="630" width="470" height="60" as="geometry" />
        </mxCell>
        <mxCell id="fHW0Ke9dXqLZGUxls11q-1" value="&lt;font face=&quot;Times New Roman&quot;&gt;Main&lt;br&gt;Activities&lt;/font&gt;" style="text;html=1;align=center;verticalAlign=middle;resizable=0;points=[];autosize=1;strokeColor=none;fillColor=none;" parent="1" vertex="1">
          <mxGeometry x="90" y="530" width="70" height="40" as="geometry" />
        </mxCell>
        <mxCell id="fHW0Ke9dXqLZGUxls11q-2" value="&lt;font face=&quot;Times New Roman&quot;&gt;RQ 1&lt;/font&gt;" style="text;html=1;align=center;verticalAlign=middle;resizable=0;points=[];autosize=1;strokeColor=none;fillColor=none;" parent="1" vertex="1">
          <mxGeometry x="100" y="600" width="50" height="30" as="geometry" />
        </mxCell>
        <mxCell id="fHW0Ke9dXqLZGUxls11q-3" value="" style="rounded=0;whiteSpace=wrap;html=1;align=left;" parent="1" vertex="1">
          <mxGeometry x="190" y="720" width="490" height="170" as="geometry" />
        </mxCell>
        <mxCell id="fHW0Ke9dXqLZGUxls11q-4" value="&lt;font face=&quot;Times New Roman&quot;&gt;Chapter 5&lt;/font&gt;" style="rounded=0;whiteSpace=wrap;html=1;" parent="1" vertex="1">
          <mxGeometry x="700" y="785" width="70" height="40" as="geometry" />
        </mxCell>
        <mxCell id="fHW0Ke9dXqLZGUxls11q-6" value="&lt;font face=&quot;Times New Roman&quot;&gt;RQ 2&lt;/font&gt;" style="text;html=1;align=center;verticalAlign=middle;resizable=0;points=[];autosize=1;strokeColor=none;fillColor=none;" parent="1" vertex="1">
          <mxGeometry x="105" y="730" width="50" height="30" as="geometry" />
        </mxCell>
        <mxCell id="fHW0Ke9dXqLZGUxls11q-7" value="&lt;font face=&quot;Times New Roman&quot;&gt;RQ 3&lt;/font&gt;" style="text;html=1;align=center;verticalAlign=middle;resizable=0;points=[];autosize=1;strokeColor=none;fillColor=none;" parent="1" vertex="1">
          <mxGeometry x="105" y="760" width="50" height="30" as="geometry" />
        </mxCell>
        <mxCell id="fHW0Ke9dXqLZGUxls11q-8" value="&lt;font face=&quot;Times New Roman&quot;&gt;RQ 4&lt;/font&gt;" style="text;html=1;align=center;verticalAlign=middle;resizable=0;points=[];autosize=1;strokeColor=none;fillColor=none;" parent="1" vertex="1">
          <mxGeometry x="105" y="830" width="50" height="30" as="geometry" />
        </mxCell>
        <mxCell id="1Q24GC2N-fjEy4aL5J19-2" value="&lt;b&gt;&lt;font face=&quot;Times New Roman&quot;&gt;&amp;nbsp;Demonstrate and evaluate the solution&lt;br&gt;&lt;/font&gt;&lt;/b&gt;&lt;div&gt;&lt;font face=&quot;Times New Roman&quot;&gt;&amp;nbsp; &amp;nbsp; &amp;nbsp; &amp;nbsp; &amp;nbsp; &amp;nbsp; Illustrative Scenario&lt;/font&gt;&lt;/div&gt;&lt;div&gt;&lt;font face=&quot;Times New Roman&quot;&gt;&amp;nbsp; &amp;nbsp; &amp;nbsp; &amp;nbsp; &amp;nbsp; &amp;nbsp; Expert Review&lt;/font&gt;&lt;/div&gt;" style="rounded=0;whiteSpace=wrap;html=1;align=left;" vertex="1" parent="1">
          <mxGeometry x="200" y="810" width="470" height="70" as="geometry" />
        </mxCell>
        <mxCell id="1Q24GC2N-fjEy4aL5J19-3" value="&lt;font style=&quot;&quot; face=&quot;Times New Roman&quot;&gt;&lt;b&gt;&amp;nbsp;Develop the solution&lt;/b&gt;&lt;br&gt;&lt;b&gt;&amp;nbsp; &amp;nbsp; &amp;nbsp; &amp;nbsp; &amp;nbsp; &amp;nbsp;&amp;nbsp;&lt;/b&gt;Adapt the&lt;b&gt;&amp;nbsp;&lt;/b&gt;&lt;/font&gt;&lt;font face=&quot;Times New Roman&quot;&gt;Socio-technical Theory&lt;/font&gt;&lt;b&gt;&lt;font face=&quot;Times New Roman&quot;&gt;&lt;br&gt;&lt;/font&gt;&lt;/b&gt;&lt;div&gt;&lt;font face=&quot;Times New Roman&quot;&gt;&amp;nbsp; &amp;nbsp; &amp;nbsp; &amp;nbsp; &amp;nbsp; &amp;nbsp; Propose a career move recommendation&lt;/font&gt;&lt;/div&gt;&lt;div&gt;&lt;font face=&quot;Times New Roman&quot;&gt;&amp;nbsp; &amp;nbsp; &amp;nbsp; &amp;nbsp; &amp;nbsp; &amp;nbsp; Improve the framework with upskilling and reskilling component&lt;/font&gt;&lt;/div&gt;" style="rounded=0;whiteSpace=wrap;html=1;align=left;" vertex="1" parent="1">
          <mxGeometry x="200" y="730" width="470" height="70" as="geometry" />
        </mxCell>
        <mxCell id="1Q24GC2N-fjEy4aL5J19-4" value="" style="rounded=0;whiteSpace=wrap;html=1;align=left;" vertex="1" parent="1">
          <mxGeometry x="190" y="910" width="490" height="100" as="geometry" />
        </mxCell>
        <mxCell id="1Q24GC2N-fjEy4aL5J19-5" value="&lt;font face=&quot;Times New Roman&quot;&gt;Research Contribution&lt;/font&gt;" style="rounded=0;whiteSpace=wrap;html=1;" vertex="1" parent="1">
          <mxGeometry x="210" y="930" width="120" height="60" as="geometry" />
        </mxCell>
        <mxCell id="1Q24GC2N-fjEy4aL5J19-6" value="&lt;font face=&quot;Times New Roman&quot;&gt;Future Research&lt;/font&gt;" style="rounded=0;whiteSpace=wrap;html=1;" vertex="1" parent="1">
          <mxGeometry x="530" y="930" width="120" height="60" as="geometry" />
        </mxCell>
        <mxCell id="1Q24GC2N-fjEy4aL5J19-7" value="&lt;font face=&quot;Times New Roman&quot;&gt;Limitation and Challenge&lt;/font&gt;" style="rounded=0;whiteSpace=wrap;html=1;" vertex="1" parent="1">
          <mxGeometry x="370" y="930" width="120" height="60" as="geometry" />
        </mxCell>
        <mxCell id="1Q24GC2N-fjEy4aL5J19-8" value="&lt;font face=&quot;Times New Roman&quot;&gt;Communicate&amp;nbsp;&lt;br&gt;the&lt;br&gt;Research&lt;/font&gt;" style="text;html=1;align=center;verticalAlign=middle;resizable=0;points=[];autosize=1;strokeColor=none;fillColor=none;" vertex="1" parent="1">
          <mxGeometry x="85" y="930" width="90" height="60" as="geometry" />
        </mxCell>
        <mxCell id="1Q24GC2N-fjEy4aL5J19-9" value="&lt;font face=&quot;Times New Roman&quot;&gt;Chapter 6&lt;/font&gt;" style="rounded=0;whiteSpace=wrap;html=1;" vertex="1" parent="1">
          <mxGeometry x="700" y="940" width="70" height="40" as="geometry" />
        </mxCell>
      </root>
    </mxGraphModel>
  </diagram>
</mxfile>
